HIERARCHY
ROOT Hips
{
  OFFSET 0 89.5177 0.535
  CHANNELS 6 Xposition Yposition Zposition Zrotation Xrotation Yrotation
  JOINT Spine
  {
    OFFSET 12.0259 -0.162855 1.69034e-005
    CHANNELS 3 Zrotation Xrotation Yrotation
    JOINT Spine1
    {
      OFFSET 15.3169 -0.0121922 0
      CHANNELS 3 Zrotation Xrotation Yrotation
      JOINT Spine2
      {
        OFFSET 15.3176 -0.0121908 0
        CHANNELS 3 Zrotation Xrotation Yrotation
        JOINT Neck
        {
          OFFSET 19.9142 1.56338 0
          CHANNELS 3 Zrotation Xrotation Yrotation
          JOINT Head
          {
            OFFSET 6.92651 0 0
            CHANNELS 3 Zrotation Xrotation Yrotation
            End Site
            {
              OFFSET 20.7666 0 0
            }
          }
          JOINT LeftShoulder
          {
            OFFSET -6.20654 0.708824 7.28219
            CHANNELS 3 Zrotation Xrotation Yrotation
            JOINT LeftArm
            {
              OFFSET 14.108 0 -1.52588e-005
              CHANNELS 3 Zrotation Xrotation Yrotation
              JOINT LeftForeArm
              {
                OFFSET 28.5802 0 0
                CHANNELS 3 Zrotation Xrotation Yrotation
                JOINT LeftHand
                {
                  OFFSET 27.092 0 0
                  CHANNELS 3 Zrotation Xrotation Yrotation
                  End Site
                  {
                    OFFSET 9.55928 -0.186424 0.145352
                  }
                }
              }
            }
          }
          JOINT RightShoulder
          {
            OFFSET -6.20654 0.708866 -7.28218
            CHANNELS 3 Zrotation Xrotation Yrotation
            JOINT RightArm
            {
              OFFSET 14.108 0 1.52588e-005
              CHANNELS 3 Zrotation Xrotation Yrotation
              JOINT RightForeArm
              {
                OFFSET 28.5802 0 0
                CHANNELS 3 Zrotation Xrotation Yrotation
                JOINT RightHand
                {
                  OFFSET 27.092 0 0
                  CHANNELS 3 Zrotation Xrotation Yrotation
                  End Site
                  {
                    OFFSET 9.55929 -0.186417 -0.145354
                  }
                }
              }
            }
          }
        }
      }
    }
  }
  JOINT LeftUpLeg
  {
    OFFSET 0.005 -0.535 8.837
    CHANNELS 3 Zrotation Xrotation Yrotation
    JOINT LeftLeg
    {
      OFFSET 39.9035 0 0
      CHANNELS 3 Zrotation Xrotation Yrotation
      JOINT LeftFoot
      {
        OFFSET 39.6689 0 0
        CHANNELS 3 Zrotation Xrotation Yrotation
        JOINT LeftToe
        {
          OFFSET 10.1624 13.6296 0
          CHANNELS 3 Zrotation Xrotation Yrotation
          End Site
          {
            OFFSET 8.38147 0 0
          }
        }
      }
    }
  }
  JOINT RightUpLeg
  {
    OFFSET 0.005 -0.535 -8.837
    CHANNELS 3 Zrotation Xrotation Yrotation
    JOINT RightLeg
    {
      OFFSET 39.9035 0 0
      CHANNELS 3 Zrotation Xrotation Yrotation
      JOINT RightFoot
      {
        OFFSET 39.6689 0 0
        CHANNELS 3 Zrotation Xrotation Yrotation
        JOINT RightToe
        {
          OFFSET 10.1624 13.6296 0
          CHANNELS 3 Zrotation Xrotation Yrotation
          End Site
          {
            OFFSET 8.38147 0 0
          }
        }
      }
    }
  }
}
MOTION
Frames:	14
Frame Time:	0.0333333
530.17 85.0473 -208.399 172.365 -82.3533 81.6534 -1.58028 -0.404361 -0.79727 -3.16615 -0.78608 -1.60526 -3.16615 -0.78608 -1.60527 -8.30748e-012 -9.0191e-006 -5.27751e-005 8.43594 2.57831 -3.96389 179.717 -13.6026 -91.2057 -28.5187 -52.5099 -4.497 -4.90875e-006 0 -0 -39.8374 -22.6033 -24.4082 179.591 5.82012 94.0248 50.5979 63.4063 -63.9929 -1.59803 0 1.59028e-015 -36.4276 17.9298 21.9112 -18.6555 1.73825 -179.74 -36.1764 7.95139e-016 5.96354e-016 25.0744 4.01227 0.718527 90 -1.89102e-020 1.98785e-016 -17.7518 -4.85303 -178.6 -34.9413 3.97569e-016 1.98785e-016 24.6738 -2.62647 -1.59985 90 -7.58303e-021 -1.98785e-016 
530.132 85.0394 -208.47 172.555 -82.3169 81.8655 -1.57942 -0.411293 -0.807809 -3.16459 -0.79966 -1.62652 -3.16459 -0.79966 -1.62653 -8.30738e-012 -9.0191e-006 -5.27751e-005 8.38426 2.53437 -3.99567 179.708 -13.6356 -91.2375 -28.6206 -52.5704 -4.54078 -4.85329e-006 1.27222e-014 1.59028e-015 -39.8213 -22.6677 -24.5327 179.597 5.8291 93.9622 49.9277 63.3775 -63.3874 -1.55368 3.18055e-015 -0 -36.5383 18.1495 22.037 -18.6164 1.64001 -179.813 -36.1476 -7.95139e-016 -3.97569e-016 25.1209 3.91639 0.74781 90 -2.09837e-020 -0 -17.7559 -4.97688 -178.673 -34.9604 -3.97569e-016 1.98785e-016 24.7282 -2.7639 -1.56819 90 -6.23231e-021 9.93923e-017 
530.125 85.035 -208.488 172.646 -82.2881 81.9429 -1.57282 -0.414916 -0.809422 -3.15423 -0.806935 -1.62981 -3.15423 -0.806935 -1.62982 -8.30748e-012 -9.0191e-006 -5.27751e-005 8.30381 2.53371 -4.01907 179.707 -13.6195 -91.2443 -28.6239 -52.439 -4.57737 -4.79937e-006 3.18055e-015 -0 -39.6995 -22.5791 -24.3354 179.598 5.82219 93.9565 49.8082 63.4078 -63.2208 -1.5149 0 1.59028e-015 -36.6032 18.0934 22.0514 -18.6463 1.74309 -179.787 -36.1674 0 -1.98785e-016 25.1418 3.96259 0.756325 90 5.82946e-021 -0 -17.7729 -4.93259 -178.656 -34.9615 -7.95139e-016 -3.97569e-016 24.7427 -2.71867 -1.56153 90 3.5427e-021 -1.98785e-016 
530.126 85.03 -208.496 172.82 -82.284 82.0821 -1.5677 -0.414551 -0.808232 -3.1412 -0.806225 -1.6274 -3.1412 -0.806225 -1.62741 -8.30756e-012 -9.0191e-006 -5.27751e-005 8.2183 2.56699 -4.06461 179.691 -13.6022 -91.3117 -28.6074 -52.523 -4.52627 -4.74703e-006 -3.18055e-015 1.59028e-015 -39.7985 -22.5801 -24.3279 179.597 5.80979 93.9666 49.7498 63.4088 -63.105 -1.50474 0 -0 -36.5843 18.1098 22.066 -18.665 1.78309 -179.742 -36.208 1.59028e-015 9.93923e-016 25.1724 3.98989 0.755157 90 -1.17063e-020 1.98785e-016 -17.7619 -4.86668 -178.603 -34.9506 0 -3.97569e-016 24.7474 -2.68609 -1.56178 90 1.16741e-018 2.98177e-016 
530.126 85.0291 -208.521 173.206 -82.2901 82.4632 -1.56986 -0.413531 -0.809506 -3.14552 -0.804226 -1.62991 -3.14552 -0.804225 -1.62992 -8.30743e-012 -9.0191e-006 -5.27751e-005 8.26327 2.70126 -4.11551 179.684 -13.6051 -91.3449 -28.6508 -52.5143 -4.54368 -4.69628e-006 -3.18055e-015 -1.59028e-015 -39.8494 -22.6336 -24.4367 179.597 5.8145 93.9663 49.4643 63.4509 -62.8298 -1.45153 -1.59028e-015 -7.95139e-016 -36.5868 18.2545 22.1959 -18.6337 1.75967 -179.751 -36.1972 0 5.96354e-016 25.1939 3.92332 0.755096 90 2.8406e-018 -0 -17.7478 -4.82314 -178.594 -34.9425 3.97569e-016 5.96354e-016 24.753 -2.67616 -1.56255 90 1.4658e-018 -9.93923e-017 
530.124 85.0282 -208.537 173.802 -82.2744 83.0633 -1.58731 -0.410989 -0.797638 -3.18029 -0.799223 -1.60622 -3.18029 -0.799223 -1.60623 -8.30743e-012 -9.0191e-006 -5.27751e-005 8.42121 2.8995 -4.25897 179.689 -13.6565 -91.3142 -28.6916 -52.3776 -4.52834 -4.64717e-006 -9.54166e-015 -0 -39.8115 -22.7713 -24.5589 179.587 5.75626 94.1074 49.6544 63.4328 -62.9725 -1.49853 3.18055e-015 1.59028e-015 -36.6184 18.1905 22.1341 -18.6438 1.80305 -179.742 -36.1915 0 3.97569e-016 25.2038 3.90577 0.75508 90 -1.61974e-018 -0 -17.7681 -4.73547 -178.583 -34.9426 -7.95139e-016 -3.97569e-016 24.7566 -2.69733 -1.56363 90 -4.19342e-018 1.98785e-016 
530.122 85.0275 -208.548 174.268 -82.2572 83.5174 -1.60469 -0.395666 -0.807646 -3.2149 -0.768058 -1.62592 -3.2149 -0.768057 -1.62593 -8.30748e-012 -9.0191e-006 -5.27751e-005 8.58857 3.02063 -4.23251 179.675 -13.5016 -91.3925 -28.6419 -52.4487 -4.58365 -4.59971e-006 -3.18055e-015 -1.59028e-015 -39.6882 -22.8008 -24.5278 179.585 5.79537 94.1013 49.9998 63.4941 -63.2828 -1.53164 -1.59028e-015 -7.95139e-016 -36.5833 18.0381 22.0172 -18.6453 1.86034 -179.713 -36.1901 0 1.98785e-016 25.2248 3.89666 0.755072 90 -2.02922e-018 -1.98785e-016 -17.7972 -4.73927 -178.563 -34.9389 -1.19271e-015 -1.19271e-015 24.7459 -2.70631 -1.5648 90 -1.31035e-018 9.93923e-017 
530.121 85.0272 -208.562 174.784 -82.2732 84.0209 -1.61087 -0.404496 -0.778672 -3.2272 -0.786443 -1.56827 -3.2272 -0.786443 -1.56828 -8.30728e-012 -9.0191e-006 -5.27751e-005 8.68989 3.22921 -4.43952 179.735 -13.5146 -91.1345 -28.8379 -52.3303 -4.94412 -4.55395e-006 9.54166e-015 1.59028e-015 -39.76 -22.7511 -24.3952 179.571 6.20826 93.9577 54.9519 66.2309 -68.8946 -2.63685e-011 -3.18055e-015 -1.59028e-015 -42.4147 19.3068 25.3501 -18.6211 1.88283 -179.689 -36.1899 3.97569e-016 -1.98785e-016 25.2426 3.8799 0.755057 90 -8.56125e-019 1.98785e-016 -17.7732 -4.65813 -178.53 -34.9235 0 -1.98785e-016 24.744 -2.69379 -1.56585 90 -3.10904e-019 9.93923e-017 
530.128 85.0268 -208.567 175.232 -82.2753 84.453 -1.61644 -0.393562 -0.793089 -3.23827 -0.764095 -1.59683 -3.23827 -0.764095 -1.59684 -8.30753e-012 -9.0191e-006 -5.27751e-005 8.72004 3.27956 -4.33107 179.67 -13.5694 -91.4055 -28.9071 -52.4431 -4.82129 -4.5099e-006 1.27222e-014 -0 -39.8072 -22.7177 -24.4813 179.581 5.789 94.1476 49.3892 63.5395 -62.8189 -1.48431 1.59028e-015 -0 -36.6645 18.1333 22.1256 -18.6168 1.95877 -179.652 -36.196 3.97569e-016 1.98785e-016 25.2582 3.88749 0.755064 90 -1.48627e-019 -0 -17.7683 -4.60935 -178.497 -34.9104 -3.97569e-016 -9.93923e-016 24.7367 -2.71785 -1.56665 90 9.17547e-019 1.98785e-016 
530.135 85.0264 -208.572 175.389 -82.2824 84.5829 -1.61644 -0.39484 -0.780673 -3.23821 -0.767002 -1.57204 -3.23821 -0.767002 -1.57205 -8.30758e-012 -9.0191e-006 -5.27751e-005 8.79659 3.29704 -4.39345 179.714 -13.4649 -91.2313 -29.0811 -52.1918 -5.18263 -4.4676e-006 9.54166e-015 3.18055e-015 -39.7525 -22.7369 -24.4627 179.57 6.16921 93.994 54.3864 66.1467 -68.3614 -7.09197e-006 0 7.95139e-016 -42.4636 19.4008 25.4946 -18.6148 1.93491 -179.624 -36.2141 -3.97569e-016 -0 25.2739 3.86963 0.755048 90 -1.13746e-020 -0 -17.752 -4.63264 -178.465 -34.8912 -3.97569e-016 1.98785e-016 24.726 -2.7245 -1.56696 90 -1.52135e-020 -0 
530.118 85.026 -208.574 175.44 -82.3148 84.6318 -1.59852 -0.388421 -0.795199 -3.20238 -0.754009 -1.60079 -3.20238 -0.754009 -1.6008 -8.30748e-012 -9.0191e-006 -5.27751e-005 8.73348 3.28075 -4.31787 179.642 -13.5441 -91.5283 -29.1741 -52.3584 -4.96684 -4.42708e-006 -1.27222e-014 -1.59028e-015 -39.7505 -22.6342 -24.4517 179.579 5.70782 94.2232 49.543 63.496 -62.8854 -1.54221 -3.18055e-015 -0 -36.6455 18.1026 22.0917 -18.5839 1.89224 -179.637 -36.2187 -7.95139e-016 -5.96354e-016 25.2764 3.85601 0.763722 90 -1.62206e-020 -5.96354e-016 -17.7251 -4.60816 -178.47 -34.8959 3.97569e-016 -5.96354e-016 24.7268 -2.70234 -1.55495 90 -2.43901e-020 -1.98785e-016 
530.1 85.0251 -208.564 175.032 -82.3396 84.229 -1.58104 -0.394711 -0.801735 -3.16756 -0.76665 -1.61392 -3.16756 -0.76665 -1.61393 -8.30743e-012 -9.0191e-006 -5.27751e-005 8.69703 3.22912 -4.33795 179.628 -13.511 -91.5908 -29.2482 -52.3186 -4.9861 -4.38836e-006 -1.27222e-014 -0 -39.7077 -22.5187 -24.3198 179.575 5.70877 94.2716 49.986 63.5561 -63.3012 -1.56251 3.18055e-015 7.95139e-016 -36.5099 17.9575 21.9906 -18.5672 1.91771 -179.66 -36.2235 -3.97569e-016 -0 25.2671 3.87873 0.782952 90 -1.40049e-020 -0 -17.706 -4.6617 -178.502 -34.9115 -7.95139e-016 1.98785e-016 24.7334 -2.71603 -1.54209 90 4.60314e-020 9.93923e-017 
530.083 85.0239 -208.557 174.438 -82.3507 83.6379 -1.57628 -0.415421 -0.802131 -3.15833 -0.808117 -1.61526 -3.15833 -0.808117 -1.61527 -8.30743e-012 -9.0191e-006 -5.27751e-005 8.80204 3.33009 -4.37129 179.624 -13.4958 -91.6116 -29.3323 -52.3682 -4.99685 -4.35148e-006 1.27222e-014 -0 -39.7645 -22.5086 -24.3293 179.577 5.66391 94.2803 49.3696 63.4771 -62.7437 -1.52022 -1.59028e-015 -7.95139e-016 -36.599 18.1505 22.107 -18.5688 1.84586 -179.693 -36.2358 7.95139e-016 1.98785e-016 25.257 3.88366 0.7951 90 -6.10197e-021 -0 -17.6864 -4.63867 -178.519 -34.9208 -3.97569e-016 3.97569e-016 24.7471 -2.64649 -1.52798 90 3.3863e-020 3.97569e-016 
530.061 85.0224 -208.532 174.033 -82.3335 83.2706 -1.57744 -0.428609 -0.784872 -3.16469 -0.834919 -1.58113 -3.16469 -0.834919 -1.58114 -8.30743e-012 -9.0191e-006 -5.27751e-005 9.01493 3.39951 -4.62271 179.703 -13.3589 -91.2833 -29.4521 -52.1055 -5.27299 -4.31647e-006 -3.18055e-015 -1.59028e-015 -39.7086 -22.6601 -24.3474 179.561 6.08769 94.1342 54.3714 66.2318 -68.3893 -8.83161e-012 3.18055e-015 3.97569e-015 -42.4958 19.3344 25.4828 -18.607 1.8345 -179.752 -36.2336 -7.95139e-016 -9.93923e-016 25.2251 3.90115 0.809768 90 1.55452e-020 -3.97569e-016 -17.739 -4.66963 -178.582 -34.9708 3.97569e-016 1.98785e-016 24.7607 -2.62045 -1.51565 90 2.28202e-020 -9.93923e-017 
